<?xml version="1.0" encoding="utf-8"?>
<!-- Generator: Adobe Illustrator 25.0.0, SVG Export Plug-In . SVG Version: 6.00 Build 0)  -->
<svg version="1.1" id="Layer_1" xmlns="http://www.w3.org/2000/svg" xmlns:xlink="http://www.w3.org/1999/xlink" x="0px" y="0px"
	 viewBox="0 0 977.4 159.7" style="enable-background:new 0 0 977.4 159.7;" xml:space="preserve">
<style type="text/css">
	.st0{fill:#FFFFFF;}
</style>
<path class="st0" d="M56.6,150.7c-21.8,0-36.2-9.6-45.8-21l19.4-21.6c8,8.8,15.8,14,25.6,14c11.6,0,18.8-7,18.8-23.2V8.7h31.6v91.6
	C106.2,134.3,86.2,150.7,56.6,150.7z M205.6,151.1c-43.2,0-74.2-32.2-74.2-72v-0.4c0-39.8,31.4-72.4,74.6-72.4s74.2,32.2,74.2,72
	v0.4C280.2,118.5,248.8,151.1,205.6,151.1z M248,78.7c0-24-17.6-44-42.4-44s-42,19.6-42,43.6v0.4c0,24,17.6,44,42.4,44
	s42-19.6,42-43.6V78.7z M374.2,148.7h-66.6V8.7h65c28.6,0,46.2,14.2,46.2,36.2v0.4c0,15.8-8.4,24.6-18.4,30.2
	c16.2,6.2,26.2,15.6,26.2,34.4v0.4C426.6,135.9,405.8,148.7,374.2,148.7z M388.2,50.1c0-9.2-7.2-14.4-20.2-14.4h-30.4v29.6H366
	c13.6,0,22.2-4.4,22.2-14.8V50.1z M396,106.1c0-9.4-7-15.2-22.8-15.2h-35.6v30.8h36.6c13.6,0,21.8-4.8,21.8-15.2V106.1z M482.8,36.7
	v29.8h66.8v28h-66.8v54.2H452V8.7h106.6v28H482.8z M583.2,148.7V8.7H614v112h69.8v28H583.2z M707,148.7V8.7h105.6v27.4h-75v28.4h66
	v27.4h-66v29.4h76v27.4H707z M928.4,148.7l-31.4-48l-31.6,48h-35l48.8-71.2L832.4,8.7h36l29.4,45.4l29.6-45.4h35l-46.8,68.4
	l48.8,71.6L928.4,148.7L928.4,148.7z"/>
</svg>
